<svg xmlns="http://www.w3.org/2000/svg" viewBox="0 0 200 200">
  <!-- Background Circle -->
  <circle cx="100" cy="100" r="95" fill="#4F46E5" />
  
  <!-- Inner Circle/Sphere Effect -->
  <circle cx="100" cy="100" r="75" fill="#6366F1" />
  
  <!-- Highlight/Shine Effect -->
  <circle cx="70" cy="70" r="15" fill="#FFFFFF" opacity="0.3" />
  
  <!-- Orbital Ring -->
  <ellipse cx="100" cy="100" rx="95" ry="30" fill="none" stroke="#FFFFFF" stroke-width="2" opacity="0.4" />
  
  <!-- J Letter -->
  <path d="M70 65 L90 65 L90 110 Q90 125 75 125 L65 125 Q60 125 55 120 L60 105 Q65 110 70 110 Q75 110 75 105 L75 65 Z" 
        fill="#FFFFFF" stroke="#4338CA" stroke-width="1" />
  
  <!-- S Letter -->
  <path d="M115 65 Q130 65 135 75 Q140 85 130 95 L120 100 Q110 105 115 110 Q120 115 125 110 L135 100 L145 110 Q140 120 130 125 Q115 130 105 120 Q95 110 105 100 L115 95 Q125 90 120 85 Q115 80 110 85 L105 95 L95 85 Q100 70 115 65 Z" 
        fill="#FFFFFF" stroke="#4338CA" stroke-width="1" />
  
  <!-- Orbital Particles -->
  <circle cx="160" cy="100" r="4" fill="#FFFFFF" />
  <circle cx="40" cy="100" r="4" fill="#FFFFFF" />
  <circle cx="100" cy="40" r="4" fill="#FFFFFF" />
  <circle cx="100" cy="160" r="4" fill="#FFFFFF" />
</svg>